<svg width="409.1" height="74.201" viewBox="0 0 409.1 74.201" xmlns="http://www.w3.org/2000/svg"><g id="svgGroup" stroke-linecap="round" fill-rule="evenodd" font-size="9pt" stroke="#0000007a" stroke-width="0.5mm" fill="#cb96ff" style="stroke:#0000007a;stroke-width:0.5mm;fill:#cb96ff"><path d="M 22 62.7 L 22.2 62.9 A 11.028 11.028 0 0 1 21.849 65.74 A 8.763 8.763 0 0 1 20.55 68.55 Q 18.9 70.9 16.35 72.15 Q 13.8 73.4 11 73.4 A 11.382 11.382 0 0 1 5.929 72.19 A 13.251 13.251 0 0 1 5.75 72.1 Q 3.2 70.8 1.6 68.05 A 10.933 10.933 0 0 1 0.452 65.131 Q 0.127 63.804 0.036 62.25 A 21.322 21.322 0 0 1 0 61 A 27.019 27.019 0 0 1 0.397 56.502 A 37.216 37.216 0 0 1 1.45 52.05 Q 2.9 47.2 5.1 42.15 Q 7.3 37.1 9.6 32.25 Q 11.9 27.4 13.75 23.15 A 49.265 49.265 0 0 0 14.962 20.11 Q 15.501 18.604 15.85 17.259 A 23.444 23.444 0 0 0 16.2 15.7 A 7.665 7.665 0 0 0 13.583 14.497 A 7.186 7.186 0 0 0 11.9 14.3 A 6.324 6.324 0 0 0 9.566 14.764 A 8.804 8.804 0 0 0 8.05 15.55 A 8.596 8.596 0 0 0 6.507 16.838 Q 5.409 17.978 4.4 19.7 L 3.7 19.4 A 22.511 22.511 0 0 1 4.871 12.525 A 20.639 20.639 0 0 1 5.9 10.05 A 19.708 19.708 0 0 1 8.87 5.602 A 17.099 17.099 0 0 1 11.45 3.25 Q 14.9 0.7 19 0.7 A 12.194 12.194 0 0 1 23.756 1.717 Q 25.43 2.422 27.139 3.615 A 25.321 25.321 0 0 1 28.7 4.8 A 23.362 23.362 0 0 1 32.197 8.431 Q 35.204 12.248 37.907 18.206 A 73.969 73.969 0 0 1 37.95 18.3 A 65.422 65.422 0 0 1 40.677 25.542 Q 41.885 29.371 42.916 33.911 A 160.811 160.811 0 0 1 44.8 43.7 Q 48.6 31.4 53 23.1 A 81.6 81.6 0 0 1 56.335 17.353 Q 59.144 12.963 62.05 9.9 A 41.729 41.729 0 0 1 65.74 6.432 Q 67.733 4.787 69.708 3.656 A 22.137 22.137 0 0 1 71.25 2.85 Q 75.8 0.7 79.9 0.7 A 17.809 17.809 0 0 1 86.003 1.726 A 16.42 16.42 0 0 1 89.05 3.2 A 19.752 19.752 0 0 1 94.169 7.681 A 18.533 18.533 0 0 1 95.45 9.5 A 16.736 16.736 0 0 1 97.117 13.003 A 12.887 12.887 0 0 1 97.8 17.1 Q 95.3 16.4 92.85 16.1 A 39.671 39.671 0 0 0 88.75 15.806 A 35.76 35.76 0 0 0 88.1 15.8 A 31.881 31.881 0 0 0 84.561 15.991 A 28.303 28.303 0 0 0 83.7 16.1 Q 82.8 20.7 81.8 26.35 Q 80.8 32 80.05 37.7 Q 79.3 43.4 79.3 48.2 A 39.542 39.542 0 0 0 79.418 51.356 Q 79.542 52.893 79.794 54.197 A 17.104 17.104 0 0 0 80.3 56.2 A 6.765 6.765 0 0 0 80.872 57.52 Q 81.905 59.3 83.8 59.3 Q 85.194 59.3 86.626 58.237 A 8.32 8.32 0 0 0 87.05 57.9 Q 88.7 56.5 89.5 53.6 L 90.2 53.9 Q 90.2 59.179 88.793 63.018 A 17.077 17.077 0 0 1 88 64.85 A 18.88 18.88 0 0 1 85.836 68.235 A 14.055 14.055 0 0 1 82.35 71.35 A 14.663 14.663 0 0 1 78.78 72.987 A 12.138 12.138 0 0 1 75.3 73.5 A 11.47 11.47 0 0 1 69.752 72.047 A 13.892 13.892 0 0 1 69.15 71.7 A 10.996 10.996 0 0 1 66.088 68.87 Q 65.145 67.615 64.4 66 A 17.499 17.499 0 0 1 63.235 62.468 Q 62.838 60.689 62.689 58.607 A 36.622 36.622 0 0 1 62.6 56 A 49.627 49.627 0 0 1 62.864 51.038 Q 63.163 48.07 63.8 44.75 Q 65 38.5 66.95 32.2 Q 68.9 25.9 71.2 20.8 A 39.418 39.418 0 0 0 62.876 28.345 A 50.269 50.269 0 0 0 59.1 33.5 A 81.827 81.827 0 0 0 53.693 43.435 A 105.116 105.116 0 0 0 50.1 52.3 Q 50.9 55.5 51.4 58.3 A 34.434 34.434 0 0 1 51.767 60.895 Q 51.898 62.193 51.9 63.363 A 21.252 21.252 0 0 1 51.9 63.4 A 14.889 14.889 0 0 1 51.663 66.142 Q 51.195 68.64 49.8 70.3 A 6.11 6.11 0 0 1 47.369 72.009 Q 46.336 72.429 45.027 72.626 A 17.038 17.038 0 0 1 42.5 72.8 A 16.351 16.351 0 0 1 40.045 72.629 Q 38.792 72.438 37.792 72.034 A 6.384 6.384 0 0 1 35.75 70.75 A 6.703 6.703 0 0 1 33.857 67.361 A 10.211 10.211 0 0 1 33.6 65 A 16.448 16.448 0 0 1 33.763 62.766 Q 33.918 61.636 34.221 60.384 A 30.627 30.627 0 0 1 34.45 59.5 Q 35.3 56.4 36.9 52.8 A 233.456 233.456 0 0 0 35.037 47.535 Q 33.881 44.383 32.5 40.85 A 80.913 80.913 0 0 0 29.823 34.792 Q 28.339 31.756 26.48 28.497 A 137.965 137.965 0 0 0 25.2 26.3 Q 23.8 32.2 22.35 38.05 Q 20.9 43.9 19.95 48.85 Q 19.266 52.413 19.075 55.172 A 29.346 29.346 0 0 0 19 57.2 A 15.059 15.059 0 0 0 19.105 59.069 Q 19.349 61 20.152 61.904 A 2.355 2.355 0 0 0 22 62.7 Z M 286.6 20.7 L 285.6 20.3 A 24.668 24.668 0 0 1 286.344 15.302 A 18.546 18.546 0 0 1 288.5 10.2 A 20.436 20.436 0 0 1 291.805 6.092 A 17.322 17.322 0 0 1 294.9 3.75 A 17.418 17.418 0 0 1 298.206 2.212 A 13.073 13.073 0 0 1 302.4 1.5 A 9.222 9.222 0 0 1 309.078 4.229 A 11.32 11.32 0 0 1 309.1 4.25 A 8.142 8.142 0 0 1 310.964 7.184 Q 311.9 9.616 311.9 13.2 Q 311.9 17.4 310.75 22.6 Q 309.6 27.8 308.05 33.15 A 240.563 240.563 0 0 0 306.269 39.623 A 200.492 200.492 0 0 0 305.35 43.3 A 52.639 52.639 0 0 0 304.695 46.423 Q 304.421 47.982 304.298 49.343 A 23.035 23.035 0 0 0 304.2 51.4 Q 304.2 53.8 305 55.2 Q 305.8 56.6 307.7 56.6 A 6.071 6.071 0 0 0 310.188 56.035 Q 311.094 55.631 312.021 54.936 A 14.501 14.501 0 0 0 313.3 53.85 Q 316.109 51.186 318.731 47.208 A 52.128 52.128 0 0 0 318.9 46.95 A 132.711 132.711 0 0 0 322.669 40.809 A 117.473 117.473 0 0 0 323.8 38.8 A 157.124 157.124 0 0 1 324.937 30.722 Q 326.335 22.454 328.392 16.822 A 48.722 48.722 0 0 1 328.4 16.8 A 58.519 58.519 0 0 1 330.23 12.337 Q 332.454 7.531 334.95 5 A 18.269 18.269 0 0 1 336.858 3.3 Q 339.234 1.487 341.393 1.404 A 5.381 5.381 0 0 1 341.6 1.4 Q 344.9 1.4 347.15 4.65 A 11.932 11.932 0 0 1 348.872 8.52 Q 349.285 10.13 349.375 12.02 A 22.651 22.651 0 0 1 349.4 13.1 A 22.588 22.588 0 0 1 348.938 17.505 Q 348.524 19.583 347.74 21.851 A 42.63 42.63 0 0 1 347.15 23.45 A 29.52 29.52 0 0 1 344.305 28.874 Q 342.719 31.289 340.556 33.731 A 54.013 54.013 0 0 1 339.3 35.1 Q 338.6 38.6 338.15 42.4 A 65.569 65.569 0 0 0 337.763 46.994 A 54.903 54.903 0 0 0 337.7 49.6 A 32.209 32.209 0 0 0 337.828 52.562 Q 337.963 54.015 338.238 55.252 A 15.182 15.182 0 0 0 338.65 56.75 Q 339.6 59.6 342 59.6 Q 343.521 59.6 344.907 58.289 A 7.191 7.191 0 0 0 345.05 58.15 Q 346.113 57.087 346.935 55.243 A 17.827 17.827 0 0 0 347.5 53.8 L 348.3 54.2 Q 348.3 63.9 344.35 68.9 Q 340.4 73.9 335 73.9 A 8.949 8.949 0 0 1 328.449 71.072 A 14.169 14.169 0 0 1 326.8 69.05 Q 324.018 64.961 323.155 56.073 A 77.309 77.309 0 0 1 322.9 52.6 Q 318.979 60.442 314.448 65.311 A 30.684 30.684 0 0 1 310.7 68.75 A 34.074 34.074 0 0 1 306.729 71.41 Q 304.664 72.577 302.727 73.197 A 13.847 13.847 0 0 1 298.5 73.9 A 9.891 9.891 0 0 1 290.931 70.646 A 12.654 12.654 0 0 1 290.1 69.65 A 14.723 14.723 0 0 1 287.751 64.817 Q 287.166 62.787 286.983 60.373 A 30.117 30.117 0 0 1 286.9 58.1 A 46.86 46.86 0 0 1 287.21 52.852 A 62.77 62.77 0 0 1 288 47.8 Q 289.1 42.2 290.6 36.55 Q 292.1 30.9 293.2 26.2 Q 294.3 21.5 294.3 18.8 A 8.722 8.722 0 0 0 294.226 17.611 Q 294.043 16.288 293.406 15.723 A 1.749 1.749 0 0 0 292.2 15.3 Q 290.8 15.3 289.1 16.8 A 8.439 8.439 0 0 0 286.993 19.693 A 10.479 10.479 0 0 0 286.6 20.7 Z M 223 26.4 L 222.4 26.2 Q 222.4 20.2 225 15.5 Q 227.6 10.8 232.05 7.55 A 31.679 31.679 0 0 1 239.771 3.45 A 37.606 37.606 0 0 1 242.35 2.6 Q 248.2 0.9 254.6 0.9 A 44.827 44.827 0 0 1 260.066 1.213 Q 262.873 1.559 265.22 2.286 A 20.983 20.983 0 0 1 268.4 3.55 A 22.781 22.781 0 0 1 272.382 6.053 A 16.527 16.527 0 0 1 276.25 10.35 Q 278.8 14.5 278.8 19.2 A 19.405 19.405 0 0 1 276.958 27.375 A 23.223 23.223 0 0 1 276.35 28.6 Q 273.9 33.2 269.45 36.25 Q 265 39.3 258.9 39.8 A 14.294 14.294 0 0 1 262.004 43.087 A 16.706 16.706 0 0 1 262.5 43.85 Q 264 46.3 265.6 49.4 Q 267 52.2 268.9 54.75 Q 270.8 57.3 274.1 57.3 A 5.591 5.591 0 0 0 275.337 57.17 A 3.946 3.946 0 0 0 276.9 56.45 Q 277.694 55.836 278.332 54.623 A 10.899 10.899 0 0 0 278.8 53.6 L 279.4 53.9 A 14.791 14.791 0 0 1 279.888 55.736 A 12.448 12.448 0 0 1 280.05 56.8 Q 280.2 58.2 280.2 59.4 A 18.716 18.716 0 0 1 279.53 64.52 A 14.785 14.785 0 0 1 276.7 69.95 Q 273.2 74.2 267.7 74.2 A 11.752 11.752 0 0 1 264.532 73.789 A 9.625 9.625 0 0 1 261.65 72.45 A 16.053 16.053 0 0 1 257.845 68.749 A 18.739 18.739 0 0 1 257.25 67.9 A 33.988 33.988 0 0 1 254.44 62.681 A 38.258 38.258 0 0 1 254.05 61.75 Q 252.7 58.4 251.5 55.3 A 340.069 340.069 0 0 0 249.982 51.164 Q 249.278 49.286 248.628 47.629 A 187.614 187.614 0 0 0 248.2 46.55 A 39.502 39.502 0 0 0 246.83 43.489 Q 245.913 41.663 244.9 40.2 Q 243 47.8 241.85 54.8 Q 240.7 61.8 240.4 70.4 Q 238.6 72.1 236.35 73 A 12.172 12.172 0 0 1 231.872 73.9 A 11.757 11.757 0 0 1 231.8 73.9 Q 228.3 73.9 225.6 71.45 A 7.168 7.168 0 0 1 223.778 68.726 Q 222.9 66.508 222.9 63.2 A 31.847 31.847 0 0 1 223.164 59.23 Q 223.463 56.856 224.1 54.2 Q 225.3 49.2 227.05 43.9 Q 228.8 38.6 230.6 33.6 A 200.419 200.419 0 0 0 232.156 29.121 Q 232.862 27.004 233.438 25.092 A 119.839 119.839 0 0 0 233.6 24.55 A 42.425 42.425 0 0 0 234.207 22.291 Q 234.8 19.788 234.8 18.1 Q 234.8 15.68 233.207 15.603 A 2.205 2.205 0 0 0 233.1 15.6 A 3.342 3.342 0 0 0 231.801 15.892 Q 230.736 16.343 229.476 17.489 A 18.465 18.465 0 0 0 228.5 18.45 A 26.575 26.575 0 0 0 226.461 20.904 Q 224.75 23.213 223 26.4 Z M 183.4 74.1 Q 176.7 74.1 172.35 71.8 A 18.429 18.429 0 0 1 168.87 69.449 A 14.078 14.078 0 0 1 165.9 65.9 A 15.506 15.506 0 0 1 164.16 61.613 A 13.621 13.621 0 0 1 163.8 58.5 Q 163.8 54.8 165.6 51.45 A 15.151 15.151 0 0 1 170.646 45.969 A 17.659 17.659 0 0 1 170.75 45.9 A 13.335 13.335 0 0 1 176.311 43.86 A 17.331 17.331 0 0 1 178.7 43.7 Q 178.6 44.6 178.6 45.35 L 178.6 46.1 A 56.223 56.223 0 0 0 178.727 50.009 Q 179.006 54.003 179.9 56.65 A 19.434 19.434 0 0 0 180.778 58.835 Q 181.284 59.891 181.868 60.701 A 7.687 7.687 0 0 0 183.2 62.15 A 8.231 8.231 0 0 0 184.714 63.155 A 5.671 5.671 0 0 0 187.3 63.8 A 7.517 7.517 0 0 0 192.202 61.985 A 10.261 10.261 0 0 0 193 61.25 Q 195.5 58.7 195.5 55.3 Q 195.5 51.5 192.25 48.6 A 65.426 65.426 0 0 0 189.566 46.341 Q 187.125 44.388 184 42.2 Q 181.2 40.1 178.05 37.45 Q 174.9 34.8 172.7 31.15 A 15.114 15.114 0 0 1 170.76 25.778 A 19.919 19.919 0 0 1 170.5 22.5 A 18.757 18.757 0 0 1 171.233 17.171 A 16.092 16.092 0 0 1 172.95 13.3 Q 175.4 9.3 179.45 6.55 Q 183.5 3.8 188.35 2.35 A 33.587 33.587 0 0 1 197.85 0.9 A 31.788 31.788 0 0 1 198 0.9 A 30.226 30.226 0 0 1 201.969 1.145 Q 205.266 1.583 207.7 2.8 A 16.521 16.521 0 0 1 210.661 4.673 A 12.346 12.346 0 0 1 213.4 7.7 A 12.5 12.5 0 0 1 214.883 10.944 A 10.675 10.675 0 0 1 215.3 13.9 A 10.918 10.918 0 0 1 213.862 19.284 A 13.072 13.072 0 0 1 213.65 19.65 Q 212 22.4 208.8 24.1 Q 205.6 25.8 200.9 25.8 Q 201.198 24.411 201.298 23.268 A 14.803 14.803 0 0 0 201.3 23.25 Q 201.386 22.262 201.398 21.458 A 17.168 17.168 0 0 0 201.4 21.2 A 18.335 18.335 0 0 0 201.239 18.679 Q 200.844 15.84 199.476 14.29 A 5.308 5.308 0 0 0 199.25 14.05 A 8.158 8.158 0 0 0 197.538 12.719 A 6.03 6.03 0 0 0 194.5 11.9 A 6.989 6.989 0 0 0 191.092 12.81 A 9.623 9.623 0 0 0 189.7 13.75 Q 187.726 15.338 187.446 18.584 A 13.013 13.013 0 0 0 187.4 19.7 A 11.061 11.061 0 0 0 187.82 22.809 A 9.106 9.106 0 0 0 189.25 25.7 Q 191.1 28.2 194.05 30.1 A 98.5 98.5 0 0 0 199.48 33.348 A 109.234 109.234 0 0 0 200.3 33.8 Q 203.7 35.6 206.85 37.75 A 21.368 21.368 0 0 1 211.418 41.912 A 19.909 19.909 0 0 1 212.1 42.8 A 10.731 10.731 0 0 1 213.88 46.891 A 15.248 15.248 0 0 1 214.2 50.1 A 17.367 17.367 0 0 1 212.354 57.822 A 21.066 21.066 0 0 1 211.7 59.05 A 25.921 25.921 0 0 1 206.2 65.679 A 30.323 30.323 0 0 1 204.9 66.75 A 34.755 34.755 0 0 1 196.754 71.442 A 39.967 39.967 0 0 1 195.05 72.1 Q 189.5 74.1 183.4 74.1 Z M 395.4 45.7 L 394.7 46 A 30.015 30.015 0 0 0 390.174 44.035 A 38.758 38.758 0 0 0 386.15 42.9 A 68.618 68.618 0 0 0 377.318 41.511 A 76.134 76.134 0 0 0 376 41.4 Q 375 47.1 374.1 53 Q 373.2 58.9 373.2 65.1 Q 373.2 66.4 373.25 67.8 Q 373.3 69.2 373.4 70.6 A 11.283 11.283 0 0 1 369.678 73.126 A 10.692 10.692 0 0 1 365.6 73.9 A 8.342 8.342 0 0 1 360.45 72.105 A 11.811 11.811 0 0 1 359.1 70.9 A 8.743 8.743 0 0 1 357.277 67.961 Q 356.268 65.378 356.204 61.522 A 31.783 31.783 0 0 1 356.2 61 Q 356.2 55.4 357.5 50 Q 358.8 44.6 360.45 39.05 Q 362.1 33.5 363.25 27.55 A 48.041 48.041 0 0 0 364.1 18.958 Q 364.122 17.009 364 15 Q 361.3 15.4 358.7 16.4 A 19.632 19.632 0 0 0 355.172 18.2 A 23.719 23.719 0 0 0 353.6 19.3 A 59.196 59.196 0 0 1 353.73 15.246 Q 353.862 13.332 354.127 11.703 A 24.752 24.752 0 0 1 354.7 9.05 A 10.542 10.542 0 0 1 355.986 6.124 A 8.505 8.505 0 0 1 359 3.3 A 11.46 11.46 0 0 1 361.558 2.278 Q 364.127 1.565 367.822 1.505 A 42.351 42.351 0 0 1 368.5 1.5 A 54.923 54.923 0 0 1 372.085 1.624 Q 373.992 1.749 376.1 2 Q 380.3 2.5 384.75 3 A 80.791 80.791 0 0 0 390.137 3.43 A 68.191 68.191 0 0 0 393.2 3.5 A 34.812 34.812 0 0 0 396.873 3.315 A 25.693 25.693 0 0 0 400.2 2.75 A 10.871 10.871 0 0 0 402.488 1.934 A 7.809 7.809 0 0 0 405 0 Q 407 1.3 408.05 3.55 Q 409.1 5.8 409.1 8.4 Q 409.1 11.1 407.85 13.65 A 10.129 10.129 0 0 1 404.629 17.423 A 12.3 12.3 0 0 1 404 17.85 A 9.795 9.795 0 0 1 401.211 19.034 Q 399.431 19.5 397.2 19.5 A 32.197 32.197 0 0 1 392.299 19.105 A 43.733 43.733 0 0 1 387.6 18.1 Q 382.4 16.7 376.9 15.7 Q 377.4 17.9 377.65 20.1 Q 377.9 22.3 377.9 24.6 Q 377.9 27.1 377.7 29.55 A 70.579 70.579 0 0 1 377.197 33.952 A 78.139 78.139 0 0 1 377.1 34.6 A 22.909 22.909 0 0 1 379.11 33.676 Q 380.162 33.249 381.374 32.857 A 41.267 41.267 0 0 1 382.2 32.6 Q 385.2 31.7 388.35 31.1 A 37.597 37.597 0 0 1 390.982 30.69 Q 392.292 30.536 393.465 30.507 A 21.708 21.708 0 0 1 394 30.5 A 14.454 14.454 0 0 1 395.323 30.557 Q 396.125 30.631 396.8 30.8 Q 397.706 32.703 397.791 35.345 A 17.258 17.258 0 0 1 397.8 35.9 A 20.971 20.971 0 0 1 396.717 42.44 A 26.712 26.712 0 0 1 395.4 45.7 Z M 114.6 18.7 L 113.5 18.5 A 20.011 20.011 0 0 1 113.999 13.925 A 14.948 14.948 0 0 1 116.2 8.85 Q 118.9 4.9 123.1 2.9 A 20.006 20.006 0 0 1 130.466 0.94 A 19.209 19.209 0 0 1 131.7 0.9 Q 136.8 0.9 141.25 3.8 A 13.517 13.517 0 0 1 145.865 8.991 A 19.745 19.745 0 0 1 147.4 13 A 31.481 31.481 0 0 1 148.061 15.914 A 41.484 41.484 0 0 1 148.45 18.6 A 108.128 108.128 0 0 1 148.677 20.805 Q 148.777 21.892 148.839 22.849 A 54.554 54.554 0 0 1 148.9 23.95 L 149 26.2 Q 149.138 31.769 149.251 36.156 A 4525.929 4525.929 0 0 0 149.35 39.9 Q 149.5 45.5 149.9 49.3 A 57.748 57.748 0 0 0 150.242 51.981 Q 150.442 53.29 150.688 54.415 A 27.679 27.679 0 0 0 151 55.7 A 16.328 16.328 0 0 0 151.616 57.508 Q 152.149 58.805 152.85 59.75 A 4.118 4.118 0 0 0 153.826 60.71 A 3.414 3.414 0 0 0 155.8 61.3 Q 157.5 61.3 158.75 60.3 A 9.126 9.126 0 0 0 159.441 59.692 Q 160.112 59.033 160.391 58.421 A 2.656 2.656 0 0 0 160.4 58.4 L 161.1 58.9 A 19.8 19.8 0 0 1 160.711 62.917 A 14.931 14.931 0 0 1 159.3 66.9 A 14.605 14.605 0 0 1 157.096 70.041 A 12.166 12.166 0 0 1 154.6 72.1 A 11.826 11.826 0 0 1 150.665 73.687 A 11.021 11.021 0 0 1 148.5 73.9 A 10.787 10.787 0 0 1 143.759 72.776 A 13.625 13.625 0 0 1 142.45 72.05 Q 139.723 70.34 137.637 66.879 A 23.3 23.3 0 0 1 137.3 66.3 Q 135.1 62.4 134.4 56.2 Q 131.3 56 128.35 55.85 Q 125.4 55.7 123 55.7 A 92.179 92.179 0 0 0 120.731 55.727 A 79.506 79.506 0 0 0 119.95 55.75 Q 118.5 55.8 117.1 55.9 Q 116.2 59 115.65 62.15 A 36.149 36.149 0 0 0 115.109 67.548 A 33.042 33.042 0 0 0 115.1 68.3 A 3.519 3.519 0 0 1 114.216 70.606 Q 113.762 71.148 113.076 71.64 A 9.696 9.696 0 0 1 112.1 72.25 A 13.434 13.434 0 0 1 106.314 73.874 A 16.034 16.034 0 0 1 105.4 73.9 A 10.897 10.897 0 0 1 102.092 73.412 A 9.573 9.573 0 0 1 99.9 72.4 Q 97.5 70.9 97.5 67.4 Q 97.5 61.9 99.85 56.2 A 76.231 76.231 0 0 1 105.223 45.644 A 83.737 83.737 0 0 1 105.65 44.95 Q 109.1 39.4 112.55 34.1 Q 116 28.8 118.35 24 A 26.323 26.323 0 0 0 119.861 20.251 Q 120.515 18.146 120.659 16.194 A 14.831 14.831 0 0 0 120.7 15.1 A 10.217 10.217 0 0 0 120.646 14 Q 120.527 12.905 120.143 12.355 A 1.21 1.21 0 0 0 119.1 11.8 A 1.758 1.758 0 0 0 118.327 11.997 Q 117.727 12.291 117.052 13.022 A 9.818 9.818 0 0 0 116.6 13.55 A 7.553 7.553 0 0 0 115.663 15.095 Q 114.975 16.575 114.6 18.7 Z M 131.7 45.4 L 133.9 45.4 Q 133.7 38 133.35 30.2 Q 133 22.4 130.8 15.7 Q 130 22.9 126.8 30.8 L 120.4 46.6 A 28.627 28.627 0 0 1 124.661 45.76 A 32.44 32.44 0 0 1 125.7 45.65 A 62.874 62.874 0 0 1 129.356 45.435 A 76.313 76.313 0 0 1 131.7 45.4 Z M 249.9 31 A 13.208 13.208 0 0 0 253.152 30.616 A 10.521 10.521 0 0 0 256.15 29.35 Q 258.8 27.7 260.25 25.25 Q 261.7 22.8 261.7 20.3 A 7.396 7.396 0 0 0 259.635 15.147 A 9.767 9.767 0 0 0 259.35 14.85 A 6.958 6.958 0 0 0 256.87 13.296 Q 254.785 12.5 251.7 12.5 A 27.787 27.787 0 0 0 250.262 12.538 A 30.51 30.51 0 0 0 250.05 12.55 Q 249.2 12.6 248.4 12.7 A 9.816 9.816 0 0 1 248.495 13.763 A 8.669 8.669 0 0 1 248.5 14.05 L 248.5 14.7 A 111.065 111.065 0 0 1 248.232 22.52 A 100.931 100.931 0 0 1 248.15 23.6 A 85.254 85.254 0 0 1 247.852 26.628 Q 247.575 28.988 247.2 30.8 Q 247.9 30.9 248.55 30.95 A 17.363 17.363 0 0 0 249.715 30.999 A 19.322 19.322 0 0 0 249.9 31 Z" vector-effect="non-scaling-stroke"/></g></svg>