<svg width="95" height="95" viewBox="0 0 95 95" fill="none" xmlns="http://www.w3.org/2000/svg">
<g id="iconamoon:profile">
<g id="Group">
<path id="Vector" d="M16.1694 70.5872C16.1694 66.4319 17.8201 62.4467 20.7584 59.5084C23.6967 56.5701 27.6819 54.9194 31.8373 54.9194H63.1729C67.3282 54.9194 71.3134 56.5701 74.2517 59.5084C77.19 62.4467 78.8407 66.4319 78.8407 70.5872C78.8407 72.6649 78.0153 74.6575 76.5462 76.1267C75.0771 77.5958 73.0845 78.4212 71.0068 78.4212H24.0033C21.9257 78.4212 19.9331 77.5958 18.4639 76.1267C16.9948 74.6575 16.1694 72.6649 16.1694 70.5872Z" stroke="#959595" stroke-width="8.54608" stroke-linejoin="round"/>
<path id="Vector_2" d="M47.5048 39.2522C53.9946 39.2522 59.2556 33.9912 59.2556 27.5013C59.2556 21.0115 53.9946 15.7505 47.5048 15.7505C41.0149 15.7505 35.7539 21.0115 35.7539 27.5013C35.7539 33.9912 41.0149 39.2522 47.5048 39.2522Z" stroke="#959595" stroke-width="8.54608"/>
</g>
</g>
</svg>
