<svg width="17" height="17" viewBox="0 0 17 17" fill="none" xmlns="http://www.w3.org/2000/svg">
<g id="Group 1">
<path id="Vector" d="M8.5 4.25H7.4375V9.5625H11.6875V8.5H8.5V4.25Z" fill="#B5B5B5"/>
<path id="Vector_2" d="M8.5 0C5.3125 0 2.55 1.7 1.16875 4.35625L0 3.1875V7.4375H4.25L2.65625 5.84375C3.71875 3.71875 5.95 2.125 8.5 2.125C12.0063 2.125 14.875 4.99375 14.875 8.5C14.875 12.0063 12.0063 14.875 8.5 14.875C6.5875 14.875 4.8875 14.025 3.71875 12.6437L2.125 14.025C3.6125 15.8313 5.95 17 8.5 17C13.175 17 17 13.175 17 8.5C17 3.825 13.175 0 8.5 0Z" fill="#B5B5B5"/>
</g>
</svg>
